HIERARCHY
ROOT Hips
{
	OFFSET 0.000000 0.000000 0.990480
	CHANNELS 6 Xposition Yposition Zposition Xrotation Yrotation Zrotation
	JOINT Spine
	{
		OFFSET 0.000000 0.000000 0.099820
		CHANNELS 6 Xposition Yposition Zposition Xrotation Yrotation Zrotation
		JOINT Chest
		{
			OFFSET 0.000000 0.000000 0.152175
			CHANNELS 6 Xposition Yposition Zposition Xrotation Yrotation Zrotation
			JOINT Neck
			{
				OFFSET 0.000000 0.000000 0.337083
				CHANNELS 6 Xposition Yposition Zposition Xrotation Yrotation Zrotation
				JOINT Head
				{
					OFFSET 0.000000 0.000000 0.150550
					CHANNELS 3 Xrotation Yrotation Zrotation
					End Site
					{
						OFFSET 0.000000 0.000000 0.164719
					}
				}
			}
			JOINT RightShoulder
			{
				OFFSET -0.043277 0.000000 0.228616
				CHANNELS 6 Xposition Yposition Zposition Xrotation Yrotation Zrotation
				JOINT RightArm
				{
					OFFSET -0.105461 0.000000 0.000004
					CHANNELS 6 Xposition Yposition Zposition Xrotation Yrotation Zrotation
					JOINT RightForeArm
					{
						OFFSET -0.247377 0.000000 0.000009
						CHANNELS 6 Xposition Yposition Zposition Xrotation Yrotation Zrotation
						JOINT RightHand
						{
							OFFSET -0.262149 0.000000 0.000009
							CHANNELS 6 Xposition Yposition Zposition Xrotation Yrotation Zrotation
							JOINT RightHandIndex1
							{
								OFFSET -0.082535 -0.029415 0.000003
								CHANNELS 3 Xrotation Yrotation Zrotation
								JOINT RightHandIndex2
								{
									OFFSET -0.033301 -0.004409 0.000001
									CHANNELS 3 Xrotation Yrotation Zrotation
									JOINT RightHandIndex3
									{
										OFFSET -0.025492 -0.003784 0.000001
										CHANNELS 3 Xrotation Yrotation Zrotation
										End Site
										{
											OFFSET -0.043285 -0.003344 0.000001
										}
									}
								}
							}
							JOINT RightHandMiddle1
							{
								OFFSET -0.088557 -0.008155 0.000003
								CHANNELS 3 Xrotation Yrotation Zrotation
								JOINT RightHandMiddle2
								{
									OFFSET -0.034042 -0.001186 0.000001
									CHANNELS 3 Xrotation Yrotation Zrotation
									JOINT RightHandMiddle3
									{
										OFFSET -0.026773 -0.000599 0.000000
										CHANNELS 3 Xrotation Yrotation Zrotation
										End Site
										{
											OFFSET -0.052615 -0.002366 0.000002
										}
									}
								}
							}
							JOINT RightHandRing1
							{
								OFFSET -0.085632 0.009333 0.000003
								CHANNELS 3 Xrotation Yrotation Zrotation
								JOINT RightHandRing2
								{
									OFFSET -0.029113 0.002339 0.000001
									CHANNELS 3 Xrotation Yrotation Zrotation
									JOINT RightHandRing3
									{
										OFFSET -0.027037 0.001866 0.000001
										CHANNELS 3 Xrotation Yrotation Zrotation
										End Site
										{
											OFFSET -0.048310 0.000687 0.000001
										}
									}
								}
							}
							JOINT RightHandPinky1
							{
								OFFSET -0.076599 0.027405 0.000003
								CHANNELS 3 Xrotation Yrotation Zrotation
								JOINT RightHandPinky2
								{
									OFFSET -0.032445 0.007645 0.000002
									CHANNELS 3 Xrotation Yrotation Zrotation
									JOINT RightHandPinky3
									{
										OFFSET -0.019101 0.004136 0.000001
										CHANNELS 3 Xrotation Yrotation Zrotation
										End Site
										{
											OFFSET -0.036478 0.003212 0.000001
										}
									}
								}
							}
							JOINT RightHandThumb1
							{
								OFFSET -0.018894 -0.029252 0.000001
								CHANNELS 3 Xrotation Yrotation Zrotation
								JOINT RightHandThumb2
								{
									OFFSET -0.024834 -0.023384 0.000001
									CHANNELS 3 Xrotation Yrotation Zrotation
									JOINT RightHandThumb3
									{
										OFFSET -0.024730 -0.013883 0.000001
										CHANNELS 3 Xrotation Yrotation Zrotation
										End Site
										{
											OFFSET -0.036269 -0.015625 0.000001
										}
									}
								}
							}
						}
					}
				}
			}
			JOINT LeftShoulder
			{
				OFFSET 0.043336 0.000000 0.228616
				CHANNELS 6 Xposition Yposition Zposition Xrotation Yrotation Zrotation
				JOINT LeftArm
				{
					OFFSET 0.105402 0.000000 0.000018
					CHANNELS 6 Xposition Yposition Zposition Xrotation Yrotation Zrotation
					JOINT LeftForeArm
					{
						OFFSET 0.248086 -0.001017 0.000042
						CHANNELS 6 Xposition Yposition Zposition Xrotation Yrotation Zrotation
						JOINT LeftHand
						{
							OFFSET 0.262001 0.000000 0.000044
							CHANNELS 6 Xposition Yposition Zposition Xrotation Yrotation Zrotation
							JOINT LeftHandIndex1
							{
								OFFSET 0.082507 -0.030061 -0.000028
								CHANNELS 3 Xrotation Yrotation Zrotation
								JOINT LeftHandIndex2
								{
									OFFSET 0.033280 -0.004602 0.000048
									CHANNELS 3 Xrotation Yrotation Zrotation
									JOINT LeftHandIndex3
									{
										OFFSET 0.025464 -0.003944 0.000004
										CHANNELS 3 Xrotation Yrotation Zrotation
										End Site
										{
											OFFSET 0.043236 -0.003593 0.000007
										}
									}
								}
							}
							JOINT LeftHandMiddle1
							{
								OFFSET 0.088481 -0.008664 0.000015
								CHANNELS 3 Xrotation Yrotation Zrotation
								JOINT LeftHandMiddle2
								{
									OFFSET 0.034019 -0.001373 0.000006
									CHANNELS 3 Xrotation Yrotation Zrotation
									JOINT LeftHandMiddle3
									{
										OFFSET 0.026769 -0.000745 0.000005
										CHANNELS 3 Xrotation Yrotation Zrotation
										End Site
										{
											OFFSET 0.052542 -0.002648 0.000009
										}
									}
								}
							}
							JOINT LeftHandRing1
							{
								OFFSET 0.085626 0.008930 0.000014
								CHANNELS 3 Xrotation Yrotation Zrotation
								JOINT LeftHandRing2
								{
									OFFSET 0.029129 0.002221 0.000005
									CHANNELS 3 Xrotation Yrotation Zrotation
									JOINT LeftHandRing3
									{
										OFFSET 0.027049 0.001739 0.000005
										CHANNELS 3 Xrotation Yrotation Zrotation
										End Site
										{
											OFFSET 0.048215 0.000435 0.000008
										}
									}
								}
							}
							JOINT LeftHandPinky1
							{
								OFFSET 0.076700 0.027168 0.000013
								CHANNELS 3 Xrotation Yrotation Zrotation
								JOINT LeftHandPinky2
								{
									OFFSET 0.032485 0.007539 0.000005
									CHANNELS 3 Xrotation Yrotation Zrotation
									JOINT LeftHandPinky3
									{
										OFFSET 0.019121 0.004064 0.000003
										CHANNELS 3 Xrotation Yrotation Zrotation
										End Site
										{
											OFFSET 0.036502 0.003032 0.000006
										}
									}
								}
							}
							JOINT LeftHandThumb1
							{
								OFFSET 0.018711 -0.029540 0.000003
								CHANNELS 3 Xrotation Yrotation Zrotation
								JOINT LeftHandThumb2
								{
									OFFSET 0.024721 -0.023664 0.000004
									CHANNELS 3 Xrotation Yrotation Zrotation
									JOINT LeftHandThumb3
									{
										OFFSET 0.024649 -0.014096 0.000004
										CHANNELS 3 Xrotation Yrotation Zrotation
										End Site
										{
											OFFSET 0.036243 -0.015928 0.000006
										}
									}
								}
							}
						}
					}
				}
			}
		}
	}
	JOINT RightUpLeg
	{
		OFFSET -0.115000 0.000000 -0.015985
		CHANNELS 6 Xposition Yposition Zposition Xrotation Yrotation Zrotation
		JOINT RightLeg
		{
			OFFSET 0.000000 0.000000 -0.417140
			CHANNELS 6 Xposition Yposition Zposition Xrotation Yrotation Zrotation
			JOINT RightFoot
			{
				OFFSET 0.000000 0.000000 -0.438030
				CHANNELS 3 Xrotation Yrotation Zrotation
				JOINT RightToeBase
				{
					OFFSET 0.000000 -0.104620 -0.083528
					CHANNELS 6 Xposition Yposition Zposition Xrotation Yrotation Zrotation
					End Site
					{
						OFFSET 0.000000 -0.133871 -0.000951
					}
				}
			}
		}
	}
	JOINT LeftUpLeg
	{
		OFFSET 0.115000 0.000000 -0.015985
		CHANNELS 6 Xposition Yposition Zposition Xrotation Yrotation Zrotation
		JOINT LeftLeg
		{
			OFFSET 0.000000 0.000000 -0.417140
			CHANNELS 6 Xposition Yposition Zposition Xrotation Yrotation Zrotation
			JOINT LeftFoot
			{
				OFFSET 0.000000 0.000000 -0.438030
				CHANNELS 3 Xrotation Yrotation Zrotation
				JOINT LeftToeBase
				{
					OFFSET 0.000000 -0.104620 -0.083528
					CHANNELS 6 Xposition Yposition Zposition Xrotation Yrotation Zrotation
					End Site
					{
						OFFSET 0.000000 -0.133871 -0.000951
					}
				}
			}
		}
	}
}
MOTION
Frames: 4
Frame Time:	0.016667
0 0 0.9905 0 0 0 0 0 0.0998 0 0 0 0 0 0.1522 0 0 0 0 0 0.3371 0 0 0 0 0 0 -0.0433 0 0.2286 0 0 0 -0.1055 0 0 0 0 0 -0.2474 0 0 0 0 0 -0.2621 0 0 0 0 0 0 0 0 0 0 0 0 0 0 0 0 0 0 0 0 0 0 0 0 0 0 0 0 0 0 0 0 0 0 0 0 0 0 0 0 0 0 0 0 0 0 0 0 0 0 0.0433 0 0.2286 0 0 0 0.1054 0 0 0 0 0 0.2481 -0.001 0 0 0 0 0.262 0 0 0 0 0 0 0 0 0 0 0 0 0 0 0 0 0 0 0 0 0 0 0 0 0 0 0 0 0 0 0 0 0 0 0 0 0 0 0 0 0 0 0 0 0 0 0 0 0 0 -0.115 0 -0.016 0 0 0 0 0 -0.4171 0 0 0 0 0 0 0 -0.1046 -0.0835 0 0 0 0.115 0 -0.016 0 0 0 0 0 -0.4171 0 0 0 0 0 0 0 -0.1046 -0.0835 0 0 0 
-0.0023 -0.0108 0.9294 -8.9812 2.8623 -4.3688 0 -0.0002 0.0974 9.9057 0.6603 -0.7461 0 -0.0006 0.15 13.5931 1.2702 -2.2534 0 0.0006 0.2906 0.3409 0.8201 4.1829 -26.0917 -1.5293 3.9079 -0.0433 0.0006 0.2361 10.1677 -23.3899 -2.4075 -0.1055 0 0 17.338 -45.3324 20.6887 -0.2672 0 0 -2.6856 -4.136 38.8731 -0.2831 0 0 31.9555 5.1253 9.5702 23.491 -61.156 28.7649 29.48 -78.1595 26.6623 9.5093 -64.6977 7.5833 11.0693 -63.1574 15.4019 4.0547 -77.9193 3.6445 3.2535 -75.6063 2.8644 -9.1149 -63.7658 -4.8185 -9.7015 -75.137 -8.5098 -14.286 -79.0455 -12.9814 -0.9647 -26.2701 -1.6053 -8.5271 -40.6429 -3.2413 -6.9681 -36.0712 -2.2731 12.2463 -22.4051 -1.1072 -0.004 0.002 -25.3114 -0.0042 0.003 -52.9738 0.0433 0.0006 0.2361 8.1196 21.1587 4.0708 0.1054 0 0 10.2693 40.8423 -9.853 0.2675 -0.0011 0 -5.4706 4.7343 -51.8283 0.2825 0 0 24.0158 -4.9 -12.6362 25.3889 62.0008 -30.6036 32.388 78.533 -29.41 9.9357 64.7051 -7.924 7.3707 57.3106 -10.0133 3.9868 75.4381 -3.5047 3.3468 73.3858 -2.8882 -9.0586 66.9165 3.3648 -10.3807 75.9946 8.9914 -15.7817 80.086 14.2786 -10.0727 61.0383 -6.745 -29.1927 68.2091 20.5504 -34.0021 70.6423 25.0543 12.2642 22.213 0.602 -0.0039 -0.0008 24.4697 -0.0071 -0.0042 51.9804 -0.115 0 -0.016 25.2369 -1.7303 -9.3294 0 0 -0.4173 0 0 0 -15.6945 -2.1097 -7.2592 0 -0.1046 -0.0835 -0.3901 0 0 0.115 0 -0.016 -12.9965 -12.1424 4.3619 0 0 -0.4171 42.4253 0.0576 -0.0223 -16.6345 3.9228 4.5739 0 -0.1046 -0.0835 -2.0814 0 0 
-0.0034 -0.0117 0.9297 -9.0159 2.8309 -4.3384 0 -0.0001 0.0974 9.869 0.7064 -0.7623 0 -0.0006 0.15 13.5517 1.3353 -2.3019 0 0.0006 0.2906 0.3568 0.8314 4.1962 -26.0367 -1.6167 3.8977 -0.0433 0.0006 0.2361 10.203 -23.4267 -2.4086 -0.1055 0 0 17.4126 -45.4086 20.6866 -0.2672 0 0 -2.6277 -4.157 38.8481 -0.2831 0 0 32.0327 5.1229 9.6423 23.491 -61.156 28.7648 29.48 -78.1595 26.6623 9.5093 -64.6977 7.5833 11.0693 -63.1574 15.4019 4.0548 -77.9193 3.6445 3.2534 -75.6062 2.8643 -9.1149 -63.7657 -4.8186 -9.7014 -75.1369 -8.5098 -14.2859 -79.0454 -12.9812 -0.9646 -26.2699 -1.6062 -8.527 -40.6425 -3.2412 -6.9679 -36.0704 -2.2729 12.2462 -22.4051 -1.1072 -0.004 0.002 -25.3114 -0.0042 0.003 -52.9738 0.0433 0.0006 0.2361 8.1141 21.1564 4.1228 0.1054 0 0 10.2186 40.8009 -9.6931 0.2675 -0.0011 0 -5.4702 4.7366 -51.814 0.2825 0 0 23.9884 -4.8686 -12.7308 25.3889 62.0008 -30.6036 32.3883 78.533 -29.4101 9.9358 64.7052 -7.924 7.2141 57.0101 -9.7823 3.9382 75.2991 -3.4575 3.3137 73.2636 -2.8564 -9.0585 66.9165 3.3647 -10.3806 75.9946 8.9914 -15.7817 80.086 14.2787 -10.0727 61.0383 -6.7451 -29.1927 68.2091 20.5504 -34.0021 70.6424 25.0544 12.2599 22.2045 0.5658 -0.0039 -0.0008 24.4231 -0.0072 -0.0042 51.9181 -0.115 0 -0.016 25.3363 -1.7744 -9.3356 0 0 -0.4173 0 0 0 -15.7685 -2.0668 -7.2723 0 -0.1046 -0.0835 -0.3943 0 0 0.115 0 -0.016 -12.7854 -12.1684 4.3851 0 0 -0.4171 42.2006 0.0536 -0.0208 -16.5859 3.9918 4.5393 0 -0.1046 -0.0835 -2.0776 0 0 
-0.0031 -0.0113 0.93 -8.9462 2.8136 -4.4182 0 -0.0001 0.0974 9.8248 0.6915 -0.7578 0 -0.0005 0.15 13.4902 1.316 -2.2893 0 0.0006 0.2906 0.3538 0.8323 4.2369 -26.0179 -1.5285 3.9551 -0.0433 0.0006 0.2361 10.1791 -23.4005 -2.4239 -0.1055 0 0 17.389 -45.3096 20.5897 -0.2672 0 0 -2.5761 -4.1309 39.0408 -0.2831 0 0 32.0982 4.9305 9.6747 23.491 -61.156 28.7649 29.4799 -78.1595 26.6623 9.5093 -64.6977 7.5833 11.0692 -63.1573 15.4019 4.0546 -77.9193 3.6444 3.2533 -75.6061 2.8643 -9.115 -63.7657 -4.8187 -9.7014 -75.1369 -8.5098 -14.286 -79.0454 -12.9813 -0.9643 -26.2694 -1.6083 -8.5266 -40.6416 -3.241 -6.9673 -36.0686 -2.2726 12.2462 -22.4051 -1.1072 -0.004 0.002 -25.3114 -0.0042 0.003 -52.9738 0.0433 0.0006 0.2361 8.1348 21.1763 4.0985 0.1054 0 0 10.2353 40.8915 -9.6971 0.2675 -0.0011 0 -5.467 4.795 -51.8879 0.2825 0 0 23.9261 -4.9101 -12.7035 25.3888 62.0008 -30.6036 32.3883 78.533 -29.4102 9.9359 64.7052 -7.9241 7.1905 56.9644 -9.7473 3.9308 75.2782 -3.4504 3.3084 73.2443 -2.8515 -9.0586 66.9165 3.3648 -10.3807 75.9946 8.9914 -15.7818 80.086 14.2787 -10.0727 61.0383 -6.745 -29.1928 68.2091 20.5504 -34.002 70.6423 25.0543 12.2592 22.2032 0.5603 -0.0039 -0.0008 24.4161 -0.0072 -0.0042 51.9086 -0.115 0 -0.016 25.2187 -1.7169 -9.3163 0 0 -0.4173 0 0 0 -15.7086 -2.09 -7.2421 0 -0.1046 -0.0835 -0.4001 0 0 0.115 0 -0.016 -12.7978 -12.1324 4.4296 0 0 -0.4171 42.0873 0.0651 -0.0251 -16.5167 3.9511 4.5978 0 -0.1046 -0.0835 -2.0793 0 0 
